#!OML:ASF H:\Terrain\Patient Classification 1\Walking\liu\liu.ASF
:FULLY-SPECIFIED
:DEGREES
186
root 8.10942 16.6429 -11.2631 7.54503 5.2905 -2.32824
lowerback -4.7316 1.13385 0.536437
upperback -0.468512 1.4143 3.1945
thorax 2.10314 0.700609 3.08017
lowerneck -18.3911 -7.41297 -14.2337
upperneck 14.0713 -9.31611 15.5408
head 8.88364 -3.7228 6.42308
rclavicle 3.26007e-014 5.48646e-014
rhumerus -35.913 8.85422 -77.9413
rradius 44.9549
rwrist -21.908
rhand -31.7003 -25.4156
rfingers 7.12502
rthumb -4.95931 -55.3375
lclavicle 3.26007e-014 5.48646e-014
lhumerus -46.1428 -10.8369 95.2166
lradius 32.3179
lwrist 16.6568
lhand -16.3388 -24.1684
lfingers 7.12502
lthumb 9.87334 5.58014
rfemur -16.5031 4.39803 27.6895
rtibia 28.183
rfoot -20.3184 1.17654
rtoes -13.4465
lfemur -34.538 7.56103 -19.6328
ltibia 57.4676
lfoot -15.4797 12.2265
ltoes -8.17944
187
root 8.11571 16.6488 -11.1336 7.39681 5.12038 -2.22772
lowerback -4.1286 1.44324 0.679166
upperback -1.94194 1.88373 3.19374
thorax 0.233041 0.955124 2.97989
lowerneck -13.1744 -6.94848 -15.8748
upperneck 13.0853 -9.03005 16.3404
head 7.69947 -3.84643 7.08455
rclavicle -8.22472e-015 -1.74931e-014
rhumerus -39.0603 8.71797 -77.7758
rradius 45.7569
rwrist -22.4354
rhand -32.9439 -26.3987
rfingers 7.12502
rthumb -6.16002 -56.2892
lclavicle -8.22472e-015 -1.74931e-014
lhumerus -49.454 -11.4676 96.6104
lradius 32.4557
lwrist 16.9998
lhand -15.9646 -23.8245
lfingers 7.12502
lthumb 10.2343 5.90658
rfemur -15.5887 4.28192 27.6564
rtibia 27.7685
rfoot -20.4294 1.45568
rtoes -13.0538
lfemur -35.1305 7.09552 -19.7927
ltibia 56.1964
lfoot -15.633 12.1431
ltoes -6.28932
188
root 8.11874 16.6523 -11.0135 7.26526 5.02324 -2.34871
lowerback -4.26234 1.36558 0.708821
upperback -0.796116 1.73813 3.15555
thorax 1.49392 0.869075 2.94208
lowerneck -17.0093 -7.36248 -14.5517
upperneck 13.8446 -9.31071 15.508
head 8.57289 -3.80291 6.47804
rclavicle -1.1778e-014 -2.38542e-014
rhumerus -36.0777 8.30721 -77.7368
rradius 45.5083
rwrist -22.6722
rhand -33.7847 -26.3544
rfingers 7.12502
rthumb -6.97171 -56.2195
lclavicle -1.1778e-014 -2.38542e-014
lhumerus -47.0433 -11.1707 95.6719
lradius 32.1444
lwrist 16.7339
lhand -15.3749 -23.3198
lfingers 7.12502
lthumb 10.8031 6.38236
rfemur -14.7552 4.34432 27.8695
rtibia 27.2439
rfoot -20.6023 1.41711
rtoes -13.2055
lfemur -35.801 6.75082 -19.7522
ltibia 54.7981
lfoot -14.9312 12.6171
ltoes -6.09663
189
root 8.1181 16.6569 -10.8862 7.16105 4.75018 -2.51147
lowerback -4.46894 1.52168 0.845966
upperback -0.02939 1.90963 3.14796
thorax 2.39549 0.947148 2.89024
lowerneck -19.4455 -7.74401 -13.989
upperneck 14.4783 -9.63975 14.9764
head 9.21409 -3.86325 6.11901
rclavicle -5.66536e-015 8.74653e-015
rhumerus -34.2074 7.45261 -77.4329
rradius 45.6611
rwrist -22.6587
rhand -33.7536 -26.5271
rfingers 7.12502
rthumb -6.94176 -56.3933
lclavicle -5.66536e-015 8.74653e-015
lhumerus -45.4536 -10.8075 95.0922
lradius 31.6512
lwrist 15.7084
lhand -15.3702 -23.5749
lfingers 7.12502
lthumb 10.8076 6.12704
rfemur -13.9634 4.30345 28.1254
rtibia 26.752
rfoot -20.7139 1.71676
rtoes -12.7983
lfemur -36.4269 6.749 -19.7039
ltibia 53.3274
lfoot -14.7274 12.0005
ltoes -4.45953
190
root 8.12097 16.6595 -10.757 7.03325 4.52235 -2.46989
lowerback -4.53216 1.6247 0.764205
upperback 0.239188 2.04142 3.14079
thorax 2.69952 1.00889 2.94609
lowerneck -19.9227 -7.85268 -14.1516
upperneck 14.3824 -9.7118 15.1694
head 9.29917 -3.86811 6.19668
rclavicle 2.14687e-014 1.59028e-015
rhumerus -33.5645 7.05703 -77.2891
rradius 46.0745
rwrist -22.8818
rhand -33.8007 -27.9133
rfingers 7.12502
rthumb -6.98721 -57.778
lclavicle 2.14687e-014 1.59028e-015
lhumerus -45.0721 -10.4773 94.9033
lradius 31.3909
lwrist 14.9653
lhand -15.2917 -23.7779
lfingers 7.12502
lthumb 10.8834 5.92009
rfemur -13.0879 4.25413 28.1493
rtibia 26.2739
rfoot -21.0664 1.67979
rtoes -15.5904
lfemur -36.9126 6.62816 -19.8443
ltibia 51.8303
lfoot -15.0118 11.1196
ltoes -4.43591
